
<?xml version="1.0" standalone="no"?>
<!DOCTYPE svg PUBLIC "-//W3C//DTD SVG 20010904//EN"
 "http://www.w3.org/TR/2001/REC-SVG-20010904/DTD/svg10.dtd">
<svg version="1.0" xmlns="http://www.w3.org/2000/svg"
 width="393.000000pt" height="393.000000pt" viewBox="0 0 393.000000 393.000000"
 preserveAspectRatio="xMidYMid meet">

<g transform="translate(0.000000,393.000000) scale(0.100000,-0.100000)"
fill="#000000" stroke="none">
<path d="M1034 3669 c-263 -44 -445 -194 -539 -444 -89 -235 -105 -589 -45
-950 61 -361 189 -811 340 -1193 71 -178 91 -175 33 6 -132 410 -249 896 -299
1237 -25 168 -25 536 -1 694 51 324 204 505 492 582 110 30 317 30 505 1 74
-12 136 -19 139 -16 18 17 -99 55 -244 79 -97 16 -298 18 -381 4z"/>
<path d="M2354 3659 c-216 -45 -472 -159 -695 -308 -154 -104 -193 -135 -188
-149 2 -6 47 17 99 50 381 240 784 378 1035 353 269 -26 483 -213 541 -471 24
-110 15 -329 -20 -479 -39 -167 -31 -181 24 -41 80 201 106 416 67 566 -49
187 -176 354 -329 431 -139 70 -342 89 -534 48z"/>
<path d="M2115 2733 c-213 -19 -425 -102 -619 -241 -321 -231 -498 -585 -499
-997 -1 -197 41 -358 148 -569 61 -120 67 -158 33 -201 -26 -33 -105 -85 -129
-85 -36 0 -70 24 -106 77 -21 30 -39 50 -41 44 -7 -22 19 -78 52 -110 69 -67
174 -47 238 44 18 25 40 45 49 45 10 0 36 -22 59 -49 86 -102 253 -231 390
-300 179 -92 326 -125 540 -124 349 1 624 115 865 357 86 87 194 230 183 241
-3 3 -28 -23 -56 -57 -169 -212 -400 -370 -634 -433 -408 -109 -839 -4 -1145
279 -81 75 -143 157 -143 189 0 14 23 76 51 139 53 117 67 156 170 498 77 255
163 501 196 560 60 106 117 129 168 69 52 -63 136 -261 270 -639 183 -517 180
-510 242 -632 68 -133 118 -188 175 -188 111 0 170 175 313 930 96 506 132
630 211 726 44 54 93 70 166 55 68 -15 147 -56 217 -112 37 -30 63 -44 71 -39
21 13 6 34 -62 85 -125 94 -256 140 -332 115 -44 -14 -113 -88 -158 -170 -59
-106 -110 -299 -193 -725 -52 -267 -95 -443 -150 -615 -63 -196 -80 -209 -138
-113 -59 98 -65 114 -254 632 -225 618 -293 757 -390 798 -79 33 -170 -30
-232 -161 -52 -109 -86 -214 -176 -543 -87 -318 -132 -463 -169 -545 -37 -82
-54 -78 -98 19 -123 272 -150 562 -78 837 119 451 519 797 994 856 119 15 307
8 420 -15 52 -11 81 -14 88 -7 15 15 -15 28 -103 46 -147 30 -282 40 -404 29z"/>
</g>
</svg>
