<svg version="1.0" xmlns="http://www.w3.org/2000/svg" width="24" height="24" viewBox="0 0 512 512"><path d="M234.5 8.7C151.7 15.9 78.7 63.4 38.3 136.5 5.6 195.6-1.3 268.2 19.6 334.2c12.1 38 32.4 71 61.9 100.4 29.2 29 63.6 49.2 103.5 60.8 11.5 3.3 29.8 7.5 32.8 7.6.9 0 1.2-18.5 1.2-89v-89h-56v-70h55.8l.5-35.3c.5-38.3 1.2-44.6 7.1-60.2 10.3-27.2 32.7-45.3 64.8-52.2 11.1-2.4 42.4-2.4 62.8.1 8 .9 15.5 2 16.8 2.3l2.2.5v60.6l-27.2.4c-24.5.4-28 .7-33.8 2.6-10.9 3.6-17.8 11.1-21.4 23.1-1.3 4.4-1.6 10.5-1.6 31.8V255h36.5c36.2 0 36.5 0 36.5 2.1 0 1.1-2.2 16.4-5 33.9-2.7 17.5-5 32.4-5 32.9 0 .8-7.9 1.1-24.5 1.1H303v89c0 73.4.2 89 1.3 89 .8 0 7-1.5 13.9-3.4 39.5-10.9 76.6-32.1 106.7-61.1 42.4-40.8 67.5-90.3 75.8-149.5 2.5-18.5 2.3-50-.6-68.8-8.2-54.1-31.8-100.9-70.1-139.3-41-41.1-89.6-64.7-147-71.3-12.1-1.4-37.3-1.9-48.5-.9z"/></svg>