<svg width="524" height="524" fill="none" xmlns="http://www.w3.org/2000/svg"><path fill="#1E1E1E" d="M0 0h524v524H0z"/><g clip-path="url(#a)"><path fill="#F1ECE3" d="M0 0h524v524H0z"/><path d="M137.867 34.8C102.8 40.6667 78.5334 60.6667 66 94c-11.8666 31.333-14 78.533-6 126.667C68.1334 268.8 85.2 328.8 105.333 379.733c9.467 23.734 12.134 23.334 4.4-.8C92.1334 324.267 76.5334 259.467 69.8667 214c-3.3333-22.4-3.3333-71.467-.1333-92.533 6.8-43.2003 27.2-67.3337 65.5996-77.6003 14.667-4 42.267-4 67.334-.1334 9.866 1.6 18.133 2.5334 18.533 2.1334 2.4-2.2667-13.2-7.3334-32.533-10.5334-12.934-2.1333-39.734-2.4-50.8-.5333Z" fill="#000"/><path d="M313.867 36.1333c-28.8 6-62.934 21.2-92.667 41.0667-20.533 13.8667-25.733 18-25.067 19.8667.267.8 6.267-2.2667 13.2-6.6667 50.8-32 104.534-50.4 138-47.0667 35.867 3.4667 64.4 28.4 72.134 62.7997 3.2 14.667 2 43.867-2.667 63.867-5.2 22.267-4.133 24.133 3.2 5.467 10.667-26.8 14.133-55.467 8.933-75.467-6.533-24.9333-23.466-47.2-43.866-57.4667-18.534-9.3333-45.6-11.8666-71.2-6.4Z" fill="#000"/><path d="M282 159.6c-28.4 2.533-56.667 13.6-82.533 32.133-42.8 30.8-66.4 78-66.534 132.934-.133 26.266 5.467 47.733 19.734 75.866 8.133 16 8.933 21.067 4.4 26.8-3.467 4.4-14 11.334-17.2 11.334-4.8 0-9.334-3.2-14.134-10.267-2.8-4-5.2-6.667-5.466-5.867-.934 2.934 2.533 10.4 6.933 14.667 9.2 8.933 23.2 6.267 31.733-5.867 2.4-3.333 5.334-6 6.534-6 1.333 0 4.8 2.934 7.866 6.534 11.467 13.6 33.734 30.8 52 40 23.867 12.266 43.467 16.666 72 16.533 46.534-.133 83.2-15.333 115.334-47.6 11.466-11.6 25.866-30.667 24.4-32.133-.4-.4-3.734 3.066-7.467 7.6-22.533 28.266-53.333 49.333-84.533 57.733-54.4 14.533-111.867.533-152.667-37.2-10.8-10-19.067-20.933-19.067-25.2 0-1.867 3.067-10.133 6.8-18.533 7.067-15.6 8.934-20.8 22.667-66.4 10.267-34 21.733-66.8 26.133-74.667 8-14.133 15.6-17.2 22.4-9.2 6.934 8.4 18.134 34.8 36 85.2 24.4 68.933 24 68 32.267 84.267 9.067 17.733 15.733 25.066 23.333 25.066 14.8 0 22.667-23.333 41.734-124 12.8-67.466 17.6-84 28.133-96.8 5.867-7.2 12.4-9.333 22.133-7.333 9.067 2 19.6 7.467 28.934 14.933 4.933 4 8.4 5.867 9.466 5.2 2.8-1.733.8-4.533-8.266-11.333-16.667-12.533-34.134-18.667-44.267-15.333-5.867 1.866-15.067 11.733-21.067 22.666C391.867 239.467 385.067 265.2 374 322c-6.933 35.6-12.667 59.067-20 82-8.4 26.133-10.667 27.867-18.4 15.067-7.867-13.067-8.667-15.2-33.867-84.267-30-82.4-39.066-100.933-52-106.4-10.533-4.4-22.666 4-30.933 21.467-6.933 14.533-11.467 28.533-23.467 72.4-11.6 42.4-17.6 61.733-22.533 72.666-4.933 10.934-7.2 10.4-13.067-2.533-16.4-36.267-20-74.933-10.4-111.6 15.867-60.133 69.2-106.267 132.534-114.133 15.866-2 40.933-1.067 56 2 6.933 1.466 10.8 1.866 11.733.933 2-2-2-3.733-13.733-6.133-19.6-4-37.6-5.334-53.867-3.867Z" fill="#000"/></g><defs><clipPath id="a"><path fill="#fff" d="M0 0h524v524H0z"/></clipPath></defs></svg>