
<svg version="1.0" xmlns="http://www.w3.org/2000/svg" width="524" height="524" viewBox="0 0 393 393"><path d="M103.4 26.1c-26.3 4.4-44.5 19.4-53.9 44.4-8.9 23.5-10.5 58.9-4.5 95 6.1 36.1 18.9 81.1 34 119.3 7.1 17.8 9.1 17.5 3.3-.6-13.2-41-24.9-89.6-29.9-123.7-2.5-16.8-2.5-53.6-.1-69.4 5.1-32.4 20.4-50.5 49.2-58.2 11-3 31.7-3 50.5-.1 7.4 1.2 13.6 1.9 13.9 1.6 1.8-1.7-9.9-5.5-24.4-7.9-9.7-1.6-29.8-1.8-38.1-.4z"/><path d="M235.4 27.1c-21.6 4.5-47.2 15.9-69.5 30.8-15.4 10.4-19.3 13.5-18.8 14.9.2.6 4.7-1.7 9.9-5 38.1-24 78.4-37.8 103.5-35.3 26.9 2.6 48.3 21.3 54.1 47.1 2.4 11 1.5 32.9-2 47.9-3.9 16.7-3.1 18.1 2.4 4.1 8-20.1 10.6-41.6 6.7-56.6-4.9-18.7-17.6-35.4-32.9-43.1-13.9-7-34.2-8.9-53.4-4.8z"/><path d="M211.5 119.7c-21.3 1.9-42.5 10.2-61.9 24.1-32.1 23.1-49.8 58.5-49.9 99.7-.1 19.7 4.1 35.8 14.8 56.9 6.1 12 6.7 15.8 3.3 20.1-2.6 3.3-10.5 8.5-12.9 8.5-3.6 0-7-2.4-10.6-7.7-2.1-3-3.9-5-4.1-4.4-.7 2.2 1.9 7.8 5.2 11 6.9 6.7 17.4 4.7 23.8-4.4 1.8-2.5 4-4.5 4.9-4.5 1 0 3.6 2.2 5.9 4.9 8.6 10.2 25.3 23.1 39 30 17.9 9.2 32.6 12.5 54 12.4 34.9-.1 62.4-11.5 86.5-35.7 8.6-8.7 19.4-23 18.3-24.1-.3-.3-2.8 2.3-5.6 5.7-16.9 21.2-40 37-63.4 43.3-40.8 10.9-83.9.4-114.5-27.9-8.1-7.5-14.3-15.7-14.3-18.9 0-1.4 2.3-7.6 5.1-13.9 5.3-11.7 6.7-15.6 17-49.8 7.7-25.5 16.3-50.1 19.6-56 6-10.6 11.7-12.9 16.8-6.9 5.2 6.3 13.6 26.1 27 63.9 18.3 51.7 18 51 24.2 63.2 6.8 13.3 11.8 18.8 17.5 18.8 11.1 0 17-17.5 31.3-93 9.6-50.6 13.2-63 21.1-72.6 4.4-5.4 9.3-7 16.6-5.5 6.8 1.5 14.7 5.6 21.7 11.2 3.7 3 6.3 4.4 7.1 3.9 2.1-1.3.6-3.4-6.2-8.5-12.5-9.4-25.6-14-33.2-11.5-4.4 1.4-11.3 8.8-15.8 17-5.9 10.6-11 29.9-19.3 72.5-5.2 26.7-9.5 44.3-15 61.5-6.3 19.6-8 20.9-13.8 11.3-5.9-9.8-6.5-11.4-25.4-63.2-22.5-61.8-29.3-75.7-39-79.8-7.9-3.3-17 3-23.2 16.1-5.2 10.9-8.6 21.4-17.6 54.3-8.7 31.8-13.2 46.3-16.9 54.5-3.7 8.2-5.4 7.8-9.8-1.9-12.3-27.2-15-56.2-7.8-83.7 11.9-45.1 51.9-79.7 99.4-85.6 11.9-1.5 30.7-.8 42 1.5 5.2 1.1 8.1 1.4 8.8.7 1.5-1.5-1.5-2.8-10.3-4.6-14.7-3-28.2-4-40.4-2.9z"/></svg>