<?xml version="1.0" standalone="no"?>
<!DOCTYPE svg PUBLIC "-//W3C//DTD SVG 20010904//EN"
 "http://www.w3.org/TR/2001/REC-SVG-20010904/DTD/svg10.dtd">
<svg version="1.0" xmlns="http://www.w3.org/2000/svg"
 width="512.000000pt" height="512.000000pt" viewBox="0 0 512.000000 512.000000"
 preserveAspectRatio="xMidYMid meet">

<g transform="translate(0.000000,512.000000) scale(0.100000,-0.100000)"
fill="#000000" stroke="none">
<path d="M1469 5065 c-154 -26 -360 -108 -490 -195 -194 -131 -345 -359 -396
-600 -26 -125 -24 -340 6 -489 58 -294 203 -626 399 -916 128 -188 171 -307
172 -467 0 -43 -9 -182 -21 -310 -50 -551 23 -1084 212 -1560 64 -161 181
-389 220 -428 65 -67 185 -78 274 -25 76 44 87 80 145 480 28 193 63 404 77
470 63 302 206 620 343 763 58 60 92 75 159 70 106 -8 194 -94 294 -287 142
-276 221 -592 297 -1201 25 -199 30 -216 78 -262 48 -46 69 -56 133 -64 128
-15 182 29 287 233 158 311 262 662 314 1063 18 142 18 726 -1 920 -12 130
-12 155 3 239 23 131 62 222 165 380 224 343 341 617 397 926 27 148 25 372
-4 488 -47 188 -131 338 -262 467 -179 176 -413 282 -690 311 -200 21 -379
-13 -590 -111 -191 -88 -276 -110 -429 -110 -130 0 -249 29 -423 103 -84 36
-183 74 -219 85 -136 42 -304 52 -450 27z"/>
</g>
</svg>
